# xmcd
#
# Track frame offsets:
#	150
#	13627
#	29367
#	46562
#	60947
#	75807
#	89465
#	102807
#	115557
#	130650
#	144340
#	157922
#	176932
#	190422
#
# Disc length: 2781 seconds
#
# Revision: 2
# Processed by: cddbd v1.4b41PL1 Copyright (c) Steve Scherf et al.
# Submitted via: audiograbber 1.80
#
DISCID=9b0adb0e
DTITLE=Country - Various Artists - Women Of Country
DYEAR=1900
DGENRE=
TTITLE0=Lorrie Morgan - Except For Monday
TTITLE1=Patty Loveless - Can't Stop Myself From Loving You
TTITLE2=Tanya Tucker - Tell Me About It
TTITLE3=Suzy Bogguss - Drive South
TTITLE4=Rosanne Cash - My Baby Thinks He's A Train
TTITLE5=Shania Twain - What Made You Say That?
TTITLE6=Dolly Parton - I Will Always Love you
TTITLE7=Reba McEntire - (You Lift Me) Up To Heaven
TTITLE8=Mary - Chapin Carpenter
TTITLE9=Terri Gibbs - Somebody's Knockin
TTITLE10=Ronna Reeves - That's All Right With Me
TTITLE11=Kathy Mattea - Standing Knee Deep In A River (Dying Of Thirst)
TTITLE12=Joan Kennedy - I Need To Hear It From You
TTITLE13=Patricia Conroy - What Do You Care
EXTD=
EXTT0=
EXTT1=
EXTT2=
EXTT3=
EXTT4=
EXTT5=
EXTT6=
EXTT7=
EXTT8=
EXTT9=
EXTT10=
EXTT11=
EXTT12=
EXTT13=
PLAYORDER=
